<svg width="1160" height="172" viewBox="0 0 1160 172" fill="none" xmlns="http://www.w3.org/2000/svg">
<mask id="path-1-outside-1_570_2" maskUnits="userSpaceOnUse" x="-1" y="-1" width="1162" height="174" fill="black">
<rect fill="white" x="-1" y="-1" width="1162" height="174"/>
<path d="M56.64 168C49.44 168 43.68 165.84 39.36 161.52C35.2 157.2 33.12 151.44 33.12 144.24V70.56H0.48V49.68H33.12V10.56H57.84V49.68H93.12V70.56H57.84V139.92C57.84 144.72 60.08 147.12 64.56 147.12H89.28V168H56.64ZM107.762 168V49.68H132.002V63.6H135.842C137.762 58.64 140.802 55.04 144.962 52.8C149.282 50.4 154.562 49.2 160.802 49.2H174.962V71.52H159.842C151.842 71.52 145.282 73.76 140.162 78.24C135.042 82.56 132.482 89.28 132.482 98.4V168H107.762ZM219.613 171.36C211.133 171.36 203.533 169.92 196.813 167.04C190.253 164.16 184.973 159.92 180.973 154.32C177.133 148.72 175.213 141.92 175.213 133.92C175.213 125.76 177.133 119.04 180.973 113.76C184.973 108.32 190.333 104.24 197.053 101.52C203.933 98.8 211.693 97.44 220.333 97.44H256.333V89.76C256.333 82.88 254.253 77.36 250.093 73.2C245.933 69.04 239.533 66.96 230.893 66.96C222.413 66.96 215.933 68.96 211.453 72.96C206.973 76.96 204.013 82.16 202.573 88.56L179.533 81.12C181.453 74.72 184.493 68.96 188.653 63.84C192.973 58.56 198.653 54.32 205.693 51.12C212.733 47.92 221.213 46.32 231.133 46.32C246.493 46.32 258.573 50.24 267.373 58.08C276.173 65.92 280.573 77.04 280.573 91.44V140.16C280.573 144.96 282.813 147.36 287.293 147.36H297.373V168H278.893C273.293 168 268.733 166.56 265.213 163.68C261.693 160.8 259.933 156.88 259.933 151.92V151.2H256.333C255.053 153.6 253.133 156.4 250.573 159.6C248.013 162.8 244.253 165.6 239.293 168C234.333 170.24 227.773 171.36 219.613 171.36ZM223.213 150.96C233.133 150.96 241.133 148.16 247.213 142.56C253.293 136.8 256.333 128.96 256.333 119.04V116.64H221.773C215.213 116.64 209.933 118.08 205.933 120.96C201.933 123.68 199.933 127.76 199.933 133.2C199.933 138.64 202.013 142.96 206.173 146.16C210.333 149.36 216.013 150.96 223.213 150.96ZM307.009 168V49.68H331.249V67.44H335.089C337.329 62.64 341.329 58.16 347.089 54C352.849 49.84 361.409 47.76 372.769 47.76C381.729 47.76 389.649 49.76 396.529 53.76C403.569 57.76 409.089 63.44 413.089 70.8C417.089 78 419.089 86.72 419.089 96.96V168H394.369V98.88C394.369 88.64 391.809 81.12 386.689 76.32C381.569 71.36 374.529 68.88 365.569 68.88C355.329 68.88 347.089 72.24 340.849 78.96C334.769 85.68 331.729 95.44 331.729 108.24V168H307.009ZM488.745 171.36C473.705 171.36 461.225 168 451.305 161.28C441.385 154.56 435.305 144.4 433.065 130.8L456.105 125.28C457.385 131.84 459.545 137.04 462.585 140.88C465.625 144.72 469.385 147.44 473.865 149.04C478.505 150.64 483.465 151.44 488.745 151.44C496.585 151.44 502.585 149.92 506.745 146.88C511.065 143.84 513.225 139.92 513.225 135.12C513.225 130.32 511.225 126.8 507.225 124.56C503.225 122.32 497.305 120.48 489.465 119.04L481.305 117.6C473.305 116.16 466.025 114.08 459.465 111.36C452.905 108.64 447.705 104.88 443.865 100.08C440.025 95.28 438.105 89.12 438.105 81.6C438.105 70.4 442.265 61.76 450.585 55.68C458.905 49.44 469.945 46.32 483.705 46.32C496.985 46.32 507.865 49.36 516.345 55.44C524.985 61.36 530.585 69.44 533.145 79.68L510.105 86.16C508.665 78.96 505.625 73.92 500.985 71.04C496.345 68 490.585 66.48 483.705 66.48C476.985 66.48 471.705 67.76 467.865 70.32C464.025 72.72 462.105 76.16 462.105 80.64C462.105 85.44 463.945 88.96 467.625 91.2C471.465 93.44 476.585 95.12 482.985 96.24L491.385 97.68C499.865 99.12 507.625 101.12 514.665 103.68C521.705 106.24 527.225 109.92 531.225 114.72C535.385 119.52 537.465 125.92 537.465 133.92C537.465 145.76 533.065 154.96 524.265 161.52C515.465 168.08 503.625 171.36 488.745 171.36ZM570.741 168V70.56H537.621V49.68H570.741V23.76C570.741 16.56 572.901 10.8 577.221 6.47999C581.541 2.15999 587.301 -1.14441e-05 594.501 -1.14441e-05H623.301V20.88H602.421C597.781 20.88 595.461 23.28 595.461 28.08V49.68H648.501V70.56H595.461V168H570.741ZM648.501 168V49.68H673.221V168H648.501ZM660.981 34.32C656.181 34.32 652.101 32.8 648.741 29.76C645.541 26.56 643.941 22.48 643.941 17.52C643.941 12.4 645.541 8.31999 648.741 5.27999C652.101 2.23999 656.181 0.719994 660.981 0.719994C665.781 0.719994 669.781 2.23999 672.981 5.27999C676.341 8.31999 678.021 12.4 678.021 17.52C678.021 22.48 676.341 26.56 672.981 29.76C669.781 32.8 665.781 34.32 660.981 34.32ZM695.293 168V49.68H719.533V67.44H723.373C725.613 62.64 729.613 58.16 735.373 54C741.133 49.84 749.693 47.76 761.053 47.76C770.013 47.76 777.933 49.76 784.813 53.76C791.853 57.76 797.373 63.44 801.373 70.8C805.373 78 807.373 86.72 807.373 96.96V168H782.653V98.88C782.653 88.64 780.093 81.12 774.973 76.32C769.853 71.36 762.813 68.88 753.853 68.88C743.613 68.88 735.373 72.24 729.133 78.96C723.053 85.68 720.013 95.44 720.013 108.24V168H695.293ZM828.549 168V49.68H853.269V168H828.549ZM841.029 33.6C836.229 33.6 832.149 32.08 828.789 29.04C825.589 25.84 823.989 21.76 823.989 16.8C823.989 11.84 825.589 7.84 828.789 4.8C832.149 1.59999 836.229 -1.14441e-05 841.029 -1.14441e-05C845.989 -1.14441e-05 850.069 1.59999 853.269 4.8C856.469 7.84 858.069 11.84 858.069 16.8C858.069 21.76 856.469 25.84 853.269 29.04C850.069 32.08 845.989 33.6 841.029 33.6ZM919.956 168C912.756 168 906.996 165.84 902.676 161.52C898.516 157.2 896.436 151.44 896.436 144.24V70.56H863.796V49.68H896.436V10.56H921.156V49.68H948.996V70.56H921.156V139.92C921.156 144.72 923.396 147.12 927.876 147.12H952.596V168H919.956ZM997.716 168C990.516 168 984.756 165.84 980.436 161.52C976.116 157.2 973.956 151.44 973.956 144.24V70.56H948.996V49.68H973.956V10.56H998.676V49.68H1034.2V70.56H998.676V139.92C998.676 144.72 1001 147.12 1005.64 147.12H1030.12V168H997.716ZM1103.13 171.36C1091.13 171.36 1080.65 168.88 1071.69 163.92C1062.73 158.8 1055.69 151.68 1050.57 142.56C1045.61 133.28 1043.13 122.56 1043.13 110.4V107.52C1043.13 95.2 1045.61 84.48 1050.57 75.36C1055.53 66.08 1062.41 58.96 1071.21 54C1080.17 48.88 1090.49 46.32 1102.17 46.32C1113.53 46.32 1123.45 48.88 1131.93 54C1140.57 58.96 1147.29 65.92 1152.09 74.88C1156.89 83.84 1159.29 94.32 1159.29 106.32V115.68H1068.33C1068.65 126.08 1072.09 134.4 1078.65 140.64C1085.37 146.72 1093.69 149.76 1103.61 149.76C1112.89 149.76 1119.85 147.68 1124.49 143.52C1129.29 139.36 1132.97 134.56 1135.53 129.12L1155.93 139.68C1153.69 144.16 1150.41 148.88 1146.09 153.84C1141.93 158.8 1136.41 162.96 1129.53 166.32C1122.65 169.68 1113.85 171.36 1103.13 171.36ZM1068.57 96.72H1134.09C1133.45 87.76 1130.25 80.8 1124.49 75.84C1118.73 70.72 1111.21 68.16 1101.93 68.16C1092.65 68.16 1085.05 70.72 1079.13 75.84C1073.37 80.8 1069.85 87.76 1068.57 96.72Z"/>
</mask>
<path d="M39.36 161.52L38.6397 162.214L38.6462 162.22L38.6529 162.227L39.36 161.52ZM33.12 70.56H34.12V69.56H33.12V70.56ZM0.48 70.56H-0.52V71.56H0.48V70.56ZM0.48 49.68V48.68H-0.52V49.68H0.48ZM33.12 49.68V50.68H34.12V49.68H33.12ZM33.12 10.56V9.56H32.12V10.56H33.12ZM57.84 10.56H58.84V9.56H57.84V10.56ZM57.84 49.68H56.84V50.68H57.84V49.68ZM93.12 49.68H94.12V48.68H93.12V49.68ZM93.12 70.56V71.56H94.12V70.56H93.12ZM57.84 70.56V69.56H56.84V70.56H57.84ZM89.28 147.12H90.28V146.12H89.28V147.12ZM89.28 168V169H90.28V168H89.28ZM56.64 167C49.6543 167 44.1664 164.912 40.0671 160.813L38.6529 162.227C43.1936 166.768 49.2257 169 56.64 169V167ZM40.0803 160.826C36.1347 156.729 34.12 151.237 34.12 144.24H32.12C32.12 151.643 34.2653 157.671 38.6397 162.214L40.0803 160.826ZM34.12 144.24V70.56H32.12V144.24H34.12ZM33.12 69.56H0.48V71.56H33.12V69.56ZM1.48 70.56V49.68H-0.52V70.56H1.48ZM0.48 50.68H33.12V48.68H0.48V50.68ZM34.12 49.68V10.56H32.12V49.68H34.12ZM33.12 11.56H57.84V9.56H33.12V11.56ZM56.84 10.56V49.68H58.84V10.56H56.84ZM57.84 50.68H93.12V48.68H57.84V50.68ZM92.12 49.68V70.56H94.12V49.68H92.12ZM93.12 69.56H57.84V71.56H93.12V69.56ZM56.84 70.56V139.92H58.84V70.56H56.84ZM56.84 139.92C56.84 142.458 57.4307 144.547 58.7889 146.002C60.1593 147.471 62.1475 148.12 64.56 148.12V146.12C62.4925 146.12 61.1207 145.569 60.2511 144.638C59.3693 143.693 58.84 142.182 58.84 139.92H56.84ZM64.56 148.12H89.28V146.12H64.56V148.12ZM88.28 147.12V168H90.28V147.12H88.28ZM89.28 167H56.64V169H89.28V167ZM107.762 168H106.762V169H107.762V168ZM107.762 49.68V48.68H106.762V49.68H107.762ZM132.002 49.68H133.002V48.68H132.002V49.68ZM132.002 63.6H131.002V64.6H132.002V63.6ZM135.842 63.6V64.6H136.527L136.774 63.961L135.842 63.6ZM144.962 52.8L145.436 53.6805L145.448 53.6742L144.962 52.8ZM174.962 49.2H175.962V48.2H174.962V49.2ZM174.962 71.52V72.52H175.962V71.52H174.962ZM140.162 78.24L140.807 79.0043L140.814 78.9985L140.82 78.9926L140.162 78.24ZM132.482 168V169H133.482V168H132.482ZM108.762 168V49.68H106.762V168H108.762ZM107.762 50.68H132.002V48.68H107.762V50.68ZM131.002 49.68V63.6H133.002V49.68H131.002ZM132.002 64.6H135.842V62.6H132.002V64.6ZM136.774 63.961C138.62 59.1935 141.512 55.7932 145.436 53.6805L144.488 51.9195C140.091 54.2868 136.904 58.0865 134.909 63.239L136.774 63.961ZM145.448 53.6742C149.585 51.3756 154.688 50.2 160.802 50.2V48.2C154.436 48.2 148.979 49.4244 144.476 51.9258L145.448 53.6742ZM160.802 50.2H174.962V48.2H160.802V50.2ZM173.962 49.2V71.52H175.962V49.2H173.962ZM174.962 70.52H159.842V72.52H174.962V70.52ZM159.842 70.52C151.645 70.52 144.837 72.8206 139.503 77.4874L140.82 78.9926C145.727 74.6994 152.039 72.52 159.842 72.52V70.52ZM139.517 77.4757C134.098 82.0478 131.482 89.0976 131.482 98.4H133.482C133.482 89.4624 135.986 83.0722 140.807 79.0043L139.517 77.4757ZM131.482 98.4V168H133.482V98.4H131.482ZM132.482 167H107.762V169H132.482V167ZM196.813 167.04L196.411 167.956L196.419 167.959L196.813 167.04ZM180.973 154.32L180.148 154.886L180.154 154.893L180.159 154.901L180.973 154.32ZM180.973 113.76L180.167 113.168L180.164 113.172L180.973 113.76ZM197.053 101.52L196.685 100.59L196.678 100.593L197.053 101.52ZM256.333 97.44V98.44H257.333V97.44H256.333ZM250.093 73.2L249.386 73.9071L249.386 73.9071L250.093 73.2ZM202.573 88.56L202.266 89.5116L203.308 89.8482L203.549 88.7795L202.573 88.56ZM179.533 81.12L178.575 80.8326L178.294 81.7707L179.226 82.0716L179.533 81.12ZM188.653 63.84L187.879 63.2068L187.877 63.2094L188.653 63.84ZM205.693 51.12L206.107 52.0304L205.693 51.12ZM267.373 58.08L268.038 57.3333L268.038 57.3333L267.373 58.08ZM297.373 147.36H298.373V146.36H297.373V147.36ZM297.373 168V169H298.373V168H297.373ZM265.213 163.68L265.846 162.906L265.846 162.906L265.213 163.68ZM259.933 151.2H260.933V150.2H259.933V151.2ZM256.333 151.2V150.2H255.733L255.451 150.729L256.333 151.2ZM250.573 159.6L251.354 160.225L251.354 160.225L250.573 159.6ZM239.293 168L239.705 168.911L239.717 168.906L239.729 168.9L239.293 168ZM247.213 142.56L247.891 143.296L247.901 143.286L247.213 142.56ZM256.333 116.64H257.333V115.64H256.333V116.64ZM205.933 120.96L206.495 121.787L206.507 121.779L206.517 121.772L205.933 120.96ZM219.613 170.36C211.247 170.36 203.784 168.94 197.207 166.121L196.419 167.959C203.282 170.9 211.019 172.36 219.613 172.36V170.36ZM197.215 166.124C190.813 163.314 185.678 159.186 181.787 153.739L180.159 154.901C184.268 160.654 189.693 165.006 196.411 167.956L197.215 166.124ZM181.798 153.754C178.091 148.349 176.213 141.755 176.213 133.92H174.213C174.213 142.085 176.175 149.091 180.148 154.886L181.798 153.754ZM176.213 133.92C176.213 125.918 178.094 119.419 181.782 114.348L180.164 113.172C176.172 118.661 174.213 125.602 174.213 133.92H176.213ZM181.779 114.352C185.661 109.073 190.867 105.103 197.428 102.447L196.678 100.593C189.799 103.377 184.285 107.567 180.167 113.168L181.779 114.352ZM197.421 102.45C204.166 99.7833 211.798 98.44 220.333 98.44V96.44C211.588 96.44 203.7 97.8167 196.685 100.59L197.421 102.45ZM220.333 98.44H256.333V96.44H220.333V98.44ZM257.333 97.44V89.76H255.333V97.44H257.333ZM257.333 89.76C257.333 82.6633 255.179 76.8721 250.8 72.4929L249.386 73.9071C253.327 77.8479 255.333 83.0967 255.333 89.76H257.333ZM250.8 72.4929C246.38 68.0729 239.674 65.96 230.893 65.96V67.96C239.392 67.96 245.486 70.007 249.386 73.9071L250.8 72.4929ZM230.893 65.96C222.268 65.96 215.514 67.9939 210.787 72.2141L212.119 73.7059C216.353 69.9261 222.558 67.96 230.893 67.96V65.96ZM210.787 72.2141C206.137 76.3659 203.079 81.7568 201.598 88.3405L203.549 88.7795C204.947 82.5632 207.809 77.5541 212.119 73.7059L210.787 72.2141ZM202.88 87.6084L179.84 80.1684L179.226 82.0716L202.266 89.5116L202.88 87.6084ZM180.491 81.4073C182.374 75.1309 185.353 69.4878 189.429 64.4706L187.877 63.2094C183.634 68.4322 180.532 74.3091 178.575 80.8326L180.491 81.4073ZM189.427 64.4732C193.638 59.327 199.188 55.1754 206.107 52.0304L205.279 50.2096C198.118 53.4646 192.309 57.793 187.879 63.2068L189.427 64.4732ZM206.107 52.0304C212.986 48.9036 221.317 47.32 231.133 47.32V45.32C221.109 45.32 212.481 46.9364 205.279 50.2096L206.107 52.0304ZM231.133 47.32C246.324 47.32 258.141 51.1942 266.708 58.8267L268.038 57.3333C259.005 49.2858 246.662 45.32 231.133 45.32V47.32ZM266.708 58.8267C275.249 66.4356 279.573 77.2566 279.573 91.44H281.573C281.573 76.8234 277.098 65.4044 268.038 57.3333L266.708 58.8267ZM279.573 91.44V140.16H281.573V91.44H279.573ZM279.573 140.16C279.573 142.698 280.164 144.787 281.522 146.242C282.892 147.711 284.881 148.36 287.293 148.36V146.36C285.226 146.36 283.854 145.809 282.984 144.878C282.102 143.933 281.573 142.422 281.573 140.16H279.573ZM287.293 148.36H297.373V146.36H287.293V148.36ZM296.373 147.36V168H298.373V147.36H296.373ZM297.373 167H278.893V169H297.373V167ZM278.893 167C273.469 167 269.149 165.608 265.846 162.906L264.58 164.454C268.317 167.512 273.117 169 278.893 169V167ZM265.846 162.906C262.581 160.235 260.933 156.611 260.933 151.92H258.933C258.933 157.149 260.805 161.365 264.58 164.454L265.846 162.906ZM260.933 151.92V151.2H258.933V151.92H260.933ZM259.933 150.2H256.333V152.2H259.933V150.2ZM255.451 150.729C254.21 153.055 252.331 155.802 249.792 158.975L251.354 160.225C253.935 156.998 255.896 154.145 257.215 151.671L255.451 150.729ZM249.792 158.975C247.352 162.026 243.727 164.744 238.858 167.1L239.729 168.9C244.779 166.456 248.675 163.574 251.354 160.225L249.792 158.975ZM238.882 167.089C234.099 169.248 227.696 170.36 219.613 170.36V172.36C227.851 172.36 234.567 171.232 239.705 168.911L238.882 167.089ZM223.213 151.96C233.331 151.96 241.59 149.098 247.891 143.296L246.536 141.824C240.676 147.222 232.935 149.96 223.213 149.96V151.96ZM247.901 143.286C254.217 137.302 257.333 129.18 257.333 119.04H255.333C255.333 128.74 252.369 136.298 246.525 141.834L247.901 143.286ZM257.333 119.04V116.64H255.333V119.04H257.333ZM256.333 115.64H221.773V117.64H256.333V115.64ZM221.773 115.64C215.072 115.64 209.567 117.111 205.349 120.148L206.517 121.772C210.299 119.049 215.354 117.64 221.773 117.64V115.64ZM205.371 120.133C201.059 123.065 198.933 127.477 198.933 133.2H200.933C200.933 128.043 202.807 124.295 206.495 121.787L205.371 120.133ZM198.933 133.2C198.933 138.937 201.147 143.555 205.563 146.953L206.783 145.367C202.879 142.365 200.933 138.343 200.933 133.2H198.933ZM205.563 146.953C209.953 150.329 215.873 151.96 223.213 151.96V149.96C216.153 149.96 210.713 148.391 206.783 145.367L205.563 146.953ZM307.009 168H306.009V169H307.009V168ZM307.009 49.68V48.68H306.009V49.68H307.009ZM331.249 49.68H332.249V48.68H331.249V49.68ZM331.249 67.44H330.249V68.44H331.249V67.44ZM335.089 67.44V68.44H335.726L335.995 67.8629L335.089 67.44ZM347.089 54L347.674 54.8107L347.674 54.8107L347.089 54ZM396.529 53.76L396.026 54.6245L396.035 54.6295L396.529 53.76ZM413.089 70.8L412.21 71.2775L412.215 71.2856L413.089 70.8ZM419.089 168V169H420.089V168H419.089ZM394.369 168H393.369V169H394.369V168ZM386.689 76.32L385.993 77.0382L385.999 77.0439L386.005 77.0495L386.689 76.32ZM340.849 78.96L340.116 78.2795L340.107 78.2891L340.849 78.96ZM331.729 168V169H332.729V168H331.729ZM308.009 168V49.68H306.009V168H308.009ZM307.009 50.68H331.249V48.68H307.009V50.68ZM330.249 49.68V67.44H332.249V49.68H330.249ZM331.249 68.44H335.089V66.44H331.249V68.44ZM335.995 67.8629C338.142 63.2612 342.007 58.9036 347.674 54.8107L346.503 53.1893C340.65 57.4164 336.515 62.0188 334.183 67.0171L335.995 67.8629ZM347.674 54.8107C353.189 50.8277 361.503 48.76 372.769 48.76V46.76C361.315 46.76 352.508 48.8523 346.503 53.1893L347.674 54.8107ZM372.769 48.76C381.575 48.76 389.317 50.724 396.026 54.6245L397.031 52.8955C389.98 48.796 381.883 46.76 372.769 46.76V48.76ZM396.035 54.6295C402.907 58.534 408.296 64.0755 412.21 71.2775L413.967 70.3225C409.881 62.8045 404.231 56.986 397.023 52.8905L396.035 54.6295ZM412.215 71.2856C416.114 78.3051 418.089 86.8492 418.089 96.96H420.089C420.089 86.5908 418.063 77.6949 413.963 70.3143L412.215 71.2856ZM418.089 96.96V168H420.089V96.96H418.089ZM419.089 167H394.369V169H419.089V167ZM395.369 168V98.88H393.369V168H395.369ZM395.369 98.88C395.369 88.4916 392.772 80.6522 387.373 75.5905L386.005 77.0495C390.846 81.5878 393.369 88.7883 393.369 98.88H395.369ZM387.385 75.6018C382.033 70.4176 374.718 67.88 365.569 67.88V69.88C374.339 69.88 381.104 72.3024 385.993 77.0382L387.385 75.6018ZM365.569 67.88C355.087 67.88 346.568 71.3309 340.116 78.2795L341.582 79.6404C347.609 73.1491 355.571 69.88 365.569 69.88V67.88ZM340.107 78.2891C333.803 85.2566 330.729 95.294 330.729 108.24H332.729C332.729 95.586 335.734 86.1034 341.59 79.6309L340.107 78.2891ZM330.729 108.24V168H332.729V108.24H330.729ZM331.729 167H307.009V169H331.729V167ZM451.305 161.28L451.866 160.452L451.305 161.28ZM433.065 130.8L432.832 129.828L431.927 130.044L432.078 130.963L433.065 130.8ZM456.105 125.28L457.086 125.088L456.887 124.064L455.872 124.308L456.105 125.28ZM462.585 140.88L463.369 140.259L463.369 140.259L462.585 140.88ZM473.865 149.04L473.529 149.982L473.539 149.985L473.865 149.04ZM506.745 146.88L506.17 146.062L506.162 146.067L506.155 146.073L506.745 146.88ZM489.465 119.04L489.646 118.056L489.639 118.055L489.465 119.04ZM481.305 117.6L481.128 118.584L481.131 118.585L481.305 117.6ZM459.465 111.36L459.082 112.284L459.082 112.284L459.465 111.36ZM443.865 100.08L444.646 99.4553L444.646 99.4553L443.865 100.08ZM450.585 55.68L451.175 56.4874L451.185 56.48L450.585 55.68ZM516.345 55.44L515.762 56.2527L515.771 56.2589L515.78 56.2649L516.345 55.44ZM533.145 79.68L533.416 80.6426L534.351 80.3797L534.115 79.4375L533.145 79.68ZM510.105 86.16L509.124 86.3561L509.336 87.415L510.376 87.1226L510.105 86.16ZM500.985 71.04L500.437 71.8765L500.447 71.8832L500.458 71.8896L500.985 71.04ZM467.865 70.32L468.395 71.168L468.407 71.1602L468.42 71.152L467.865 70.32ZM467.625 91.2L467.105 92.0542L467.113 92.0591L467.121 92.0638L467.625 91.2ZM482.985 96.24L482.813 97.225L482.816 97.2256L482.985 96.24ZM491.385 97.68L491.216 98.6656L491.218 98.6659L491.385 97.68ZM531.225 114.72L530.457 115.36L530.463 115.368L530.469 115.375L531.225 114.72ZM524.265 161.52L524.863 162.322L524.265 161.52ZM488.745 170.36C473.854 170.36 461.582 167.034 451.866 160.452L450.744 162.108C460.867 168.966 473.556 172.36 488.745 172.36V170.36ZM451.866 160.452C442.208 153.91 436.254 144.011 434.052 130.637L432.078 130.963C434.356 144.789 440.562 155.21 450.744 162.108L451.866 160.452ZM433.298 131.772L456.338 126.252L455.872 124.308L432.832 129.828L433.298 131.772ZM455.124 125.472C456.423 132.134 458.632 137.498 461.801 141.501L463.369 140.259C460.458 136.582 458.346 131.546 457.086 125.088L455.124 125.472ZM461.801 141.501C464.954 145.483 468.867 148.317 473.529 149.982L474.201 148.098C469.903 146.563 466.296 143.957 463.369 140.259L461.801 141.501ZM473.539 149.985C478.292 151.624 483.362 152.44 488.745 152.44V150.44C483.568 150.44 478.718 149.656 474.191 148.095L473.539 149.985ZM488.745 152.44C496.693 152.44 502.935 150.903 507.335 147.687L506.155 146.073C502.235 148.937 496.477 150.44 488.745 150.44V152.44ZM507.32 147.698C511.875 144.492 514.225 140.282 514.225 135.12H512.225C512.225 139.558 510.255 143.187 506.17 146.062L507.32 147.698ZM514.225 135.12C514.225 129.979 512.047 126.114 507.714 123.687L506.736 125.433C510.403 127.486 512.225 130.661 512.225 135.12H514.225ZM507.714 123.687C503.572 121.368 497.526 119.504 489.646 118.056L489.284 120.024C497.084 121.456 502.878 123.272 506.736 125.433L507.714 123.687ZM489.639 118.055L481.479 116.615L481.131 118.585L489.291 120.025L489.639 118.055ZM481.482 116.616C473.543 115.187 466.333 113.125 459.848 110.436L459.082 112.284C465.717 115.035 473.067 117.133 481.128 118.584L481.482 116.616ZM459.848 110.436C453.419 107.771 448.365 104.105 444.646 99.4553L443.084 100.705C447.045 105.655 452.391 109.509 459.082 112.284L459.848 110.436ZM444.646 99.4553C440.977 94.8695 439.105 88.9452 439.105 81.6H437.105C437.105 89.2948 439.073 95.6905 443.084 100.705L444.646 99.4553ZM439.105 81.6C439.105 70.6869 443.138 62.3608 451.175 56.4874L449.995 54.8726C441.392 61.1592 437.105 70.1131 437.105 81.6H439.105ZM451.185 56.48C459.283 50.4062 470.092 47.32 483.705 47.32V45.32C469.798 45.32 458.527 48.4738 449.985 54.88L451.185 56.48ZM483.705 47.32C496.833 47.32 507.493 50.3241 515.762 56.2527L516.928 54.6273C508.237 48.3959 497.137 45.32 483.705 45.32V47.32ZM515.78 56.2649C524.216 62.0456 529.674 69.9176 532.175 79.9225L534.115 79.4375C531.496 68.9624 525.754 60.6744 516.91 54.6151L515.78 56.2649ZM532.874 78.7173L509.834 85.1973L510.376 87.1226L533.416 80.6426L532.874 78.7173ZM511.086 85.9639C509.611 78.59 506.46 73.2613 501.512 70.1904L500.458 71.8896C504.79 74.5787 507.719 79.33 509.124 86.3561L511.086 85.9639ZM501.533 70.2035C496.695 67.0338 490.733 65.48 483.705 65.48V67.48C490.437 67.48 495.995 68.9662 500.437 71.8765L501.533 70.2035ZM483.705 65.48C476.873 65.48 471.374 66.7791 467.31 69.4879L468.42 71.152C472.036 68.7409 477.097 67.48 483.705 67.48V65.48ZM467.335 69.472C463.206 72.0523 461.105 75.8107 461.105 80.64H463.105C463.105 76.5093 464.844 73.3877 468.395 71.168L467.335 69.472ZM461.105 80.64C461.105 85.7413 463.088 89.6093 467.105 92.0542L468.145 90.3458C464.802 88.3107 463.105 85.1387 463.105 80.64H461.105ZM467.121 92.0638C471.099 94.3843 476.345 96.0932 482.813 97.225L483.157 95.255C476.825 94.1468 471.831 92.4957 468.129 90.3362L467.121 92.0638ZM482.816 97.2256L491.216 98.6656L491.554 96.6944L483.154 95.2544L482.816 97.2256ZM491.218 98.6659C499.647 100.097 507.347 102.083 514.323 104.62L515.007 102.74C507.903 100.157 500.083 98.1427 491.552 96.6941L491.218 98.6659ZM514.323 104.62C521.23 107.131 526.591 110.721 530.457 115.36L531.993 114.08C527.859 109.119 522.18 105.349 515.007 102.74L514.323 104.62ZM530.469 115.375C534.434 119.95 536.465 126.096 536.465 133.92H538.465C538.465 125.744 536.336 119.09 531.981 114.065L530.469 115.375ZM536.465 133.92C536.465 145.473 532.192 154.364 523.667 160.718L524.863 162.322C533.938 155.556 538.465 146.047 538.465 133.92H536.465ZM523.667 160.718C515.092 167.111 503.485 170.36 488.745 170.36V172.36C503.765 172.36 515.838 169.049 524.863 162.322L523.667 160.718ZM570.741 168H569.741V169H570.741V168ZM570.741 70.56H571.741V69.56H570.741V70.56ZM537.621 70.56H536.621V71.56H537.621V70.56ZM537.621 49.68V48.68H536.621V49.68H537.621ZM570.741 49.68V50.68H571.741V49.68H570.741ZM577.221 6.47999L576.514 5.77288L576.514 5.77288L577.221 6.47999ZM623.301 -1.14441e-05H624.301V-1.00001H623.301V-1.14441e-05ZM623.301 20.88V21.88H624.301V20.88H623.301ZM595.461 49.68H594.461V50.68H595.461V49.68ZM648.501 49.68H649.501V48.68H648.501V49.68ZM648.501 70.56V71.56H649.501V70.56H648.501ZM595.461 70.56V69.56H594.461V70.56H595.461ZM595.461 168V169H596.461V168H595.461ZM648.501 168H647.501V169H648.501V168ZM648.501 49.68V48.68H647.501V49.68H648.501ZM673.221 49.68H674.221V48.68H673.221V49.68ZM673.221 168V169H674.221V168H673.221ZM648.741 29.76L648.034 30.4671L648.051 30.4848L648.07 30.5015L648.741 29.76ZM648.741 5.27999L648.07 4.53846L648.061 4.54662L648.052 4.55499L648.741 5.27999ZM672.981 5.27999L672.292 6.00499L672.301 6.01337L672.31 6.02153L672.981 5.27999ZM672.981 29.76L673.669 30.485L673.67 30.4841L672.981 29.76ZM571.741 168V70.56H569.741V168H571.741ZM570.741 69.56H537.621V71.56H570.741V69.56ZM538.621 70.56V49.68H536.621V70.56H538.621ZM537.621 50.68H570.741V48.68H537.621V50.68ZM571.741 49.68V23.76H569.741V49.68H571.741ZM571.741 23.76C571.741 16.7743 573.828 11.2864 577.928 7.1871L576.514 5.77288C571.973 10.3136 569.741 16.3457 569.741 23.76H571.741ZM577.928 7.1871C582.027 3.08783 587.515 0.999989 594.501 0.999989V-1.00001C587.086 -1.00001 581.054 1.23215 576.514 5.77288L577.928 7.1871ZM594.501 0.999989H623.301V-1.00001H594.501V0.999989ZM622.301 -1.14441e-05V20.88H624.301V-1.14441e-05H622.301ZM623.301 19.88H602.421V21.88H623.301V19.88ZM602.421 19.88C599.938 19.88 597.894 20.524 596.482 21.985C595.075 23.4396 594.461 25.5342 594.461 28.08H596.461C596.461 25.8258 597.006 24.3204 597.92 23.375C598.827 22.436 600.264 21.88 602.421 21.88V19.88ZM594.461 28.08V49.68H596.461V28.08H594.461ZM595.461 50.68H648.501V48.68H595.461V50.68ZM647.501 49.68V70.56H649.501V49.68H647.501ZM648.501 69.56H595.461V71.56H648.501V69.56ZM594.461 70.56V168H596.461V70.56H594.461ZM595.461 167H570.741V169H595.461V167ZM649.501 168V49.68H647.501V168H649.501ZM648.501 50.68H673.221V48.68H648.501V50.68ZM672.221 49.68V168H674.221V49.68H672.221ZM673.221 167H648.501V169H673.221V167ZM660.981 33.32C656.412 33.32 652.576 31.8816 649.412 29.0185L648.07 30.5015C651.625 33.7184 655.949 35.32 660.981 35.32V33.32ZM649.448 29.0529C646.454 26.0593 644.941 22.2428 644.941 17.52H642.941C642.941 22.7172 644.627 27.0606 648.034 30.4671L649.448 29.0529ZM644.941 17.52C644.941 12.6263 646.46 8.82561 649.429 6.00499L648.052 4.55499C644.621 7.81437 642.941 12.1737 642.941 17.52H644.941ZM649.412 6.02153C652.576 3.15837 656.412 1.71999 660.981 1.71999V-0.280006C655.949 -0.280006 651.625 1.32162 648.07 4.53846L649.412 6.02153ZM660.981 1.71999C665.549 1.71999 669.295 3.15775 672.292 6.00499L673.669 4.55499C670.266 1.32224 666.012 -0.280006 660.981 -0.280006V1.71999ZM672.31 6.02153C675.432 8.84626 677.021 12.6419 677.021 17.52H679.021C679.021 12.1581 677.249 7.79372 673.652 4.53846L672.31 6.02153ZM677.021 17.52C677.021 22.2274 675.438 26.0387 672.291 29.0359L673.67 30.4841C677.243 27.0813 679.021 22.7326 679.021 17.52H677.021ZM672.292 29.035C669.295 31.8822 665.549 33.32 660.981 33.32V35.32C666.012 35.32 670.266 33.7177 673.669 30.485L672.292 29.035ZM695.293 168H694.293V169H695.293V168ZM695.293 49.68V48.68H694.293V49.68H695.293ZM719.533 49.68H720.533V48.68H719.533V49.68ZM719.533 67.44H718.533V68.44H719.533V67.44ZM723.373 67.44V68.44H724.01L724.279 67.8629L723.373 67.44ZM735.373 54L735.959 54.8107L735.959 54.8107L735.373 54ZM784.813 53.76L784.31 54.6245L784.319 54.6295L784.813 53.76ZM801.373 70.8L800.494 71.2775L800.499 71.2856L801.373 70.8ZM807.373 168V169H808.373V168H807.373ZM782.653 168H781.653V169H782.653V168ZM774.973 76.32L774.277 77.0382L774.283 77.0439L774.289 77.0495L774.973 76.32ZM729.133 78.96L728.4 78.2795L728.392 78.2891L729.133 78.96ZM720.013 168V169H721.013V168H720.013ZM696.293 168V49.68H694.293V168H696.293ZM695.293 50.68H719.533V48.68H695.293V50.68ZM718.533 49.68V67.44H720.533V49.68H718.533ZM719.533 68.44H723.373V66.44H719.533V68.44ZM724.279 67.8629C726.427 63.2612 730.291 58.9036 735.959 54.8107L734.788 53.1893C728.935 57.4164 724.799 62.0188 722.467 67.0171L724.279 67.8629ZM735.959 54.8107C741.473 50.8277 749.787 48.76 761.053 48.76V46.76C749.599 46.76 740.793 48.8523 734.788 53.1893L735.959 54.8107ZM761.053 48.76C769.859 48.76 777.602 50.724 784.31 54.6245L785.316 52.8955C778.265 48.796 770.167 46.76 761.053 46.76V48.76ZM784.319 54.6295C791.191 58.534 796.58 64.0755 800.494 71.2775L802.252 70.3225C798.166 62.8045 792.515 56.986 785.307 52.8905L784.319 54.6295ZM800.499 71.2856C804.399 78.3051 806.373 86.8492 806.373 96.96H808.373C808.373 86.5908 806.348 77.6949 802.247 70.3143L800.499 71.2856ZM806.373 96.96V168H808.373V96.96H806.373ZM807.373 167H782.653V169H807.373V167ZM783.653 168V98.88H781.653V168H783.653ZM783.653 98.88C783.653 88.4916 781.056 80.6522 775.657 75.5905L774.289 77.0495C779.13 81.5878 781.653 88.7883 781.653 98.88H783.653ZM775.669 75.6018C770.317 70.4176 763.003 67.88 753.853 67.88V69.88C762.623 69.88 769.389 72.3024 774.277 77.0382L775.669 75.6018ZM753.853 67.88C743.371 67.88 734.853 71.3309 728.4 78.2795L729.866 79.6404C735.894 73.1491 743.855 69.88 753.853 69.88V67.88ZM728.392 78.2891C722.088 85.2566 719.013 95.294 719.013 108.24H721.013C721.013 95.586 724.019 86.1034 729.875 79.6309L728.392 78.2891ZM719.013 108.24V168H721.013V108.24H719.013ZM720.013 167H695.293V169H720.013V167ZM828.549 168H827.549V169H828.549V168ZM828.549 49.68V48.68H827.549V49.68H828.549ZM853.269 49.68H854.269V48.68H853.269V49.68ZM853.269 168V169H854.269V168H853.269ZM828.789 29.04L828.082 29.7471L828.1 29.7648L828.118 29.7815L828.789 29.04ZM828.789 4.8L829.478 5.525L829.479 5.52414L828.789 4.8ZM853.269 4.8L852.562 5.5071L852.571 5.51617L852.581 5.525L853.269 4.8ZM853.269 29.04L853.958 29.765L853.967 29.7562L853.976 29.7471L853.269 29.04ZM829.549 168V49.68H827.549V168H829.549ZM828.549 50.68H853.269V48.68H828.549V50.68ZM852.269 49.68V168H854.269V49.68H852.269ZM853.269 167H828.549V169H853.269V167ZM841.029 32.6C836.461 32.6 832.625 31.1616 829.46 28.2985L828.118 29.7815C831.674 32.9984 835.998 34.6 841.029 34.6V32.6ZM829.496 28.3329C826.503 25.3393 824.989 21.5228 824.989 16.8H822.989C822.989 21.9972 824.676 26.3406 828.082 29.7471L829.496 28.3329ZM824.989 16.8C824.989 12.0768 826.502 8.35194 829.478 5.525L828.101 4.075C824.676 7.32806 822.989 11.6032 822.989 16.8H824.989ZM829.479 5.52414C832.646 2.50787 836.476 0.999989 841.029 0.999989V-1.00001C835.982 -1.00001 831.653 0.69211 828.1 4.07586L829.479 5.52414ZM841.029 0.999989C845.752 0.999989 849.569 2.51355 852.562 5.5071L853.976 4.09289C850.57 0.686433 846.227 -1.00001 841.029 -1.00001V0.999989ZM852.581 5.525C855.556 8.35194 857.069 12.0768 857.069 16.8H859.069C859.069 11.6032 857.382 7.32806 853.958 4.075L852.581 5.525ZM857.069 16.8C857.069 21.5228 855.556 25.3393 852.562 28.3329L853.976 29.7471C857.383 26.3406 859.069 21.9972 859.069 16.8H857.069ZM852.581 28.315C849.59 31.1561 845.767 32.6 841.029 32.6V34.6C846.211 34.6 850.549 33.0039 853.958 29.765L852.581 28.315ZM902.676 161.52L901.955 162.214L901.962 162.22L901.969 162.227L902.676 161.52ZM896.436 70.56H897.436V69.56H896.436V70.56ZM863.796 70.56H862.796V71.56H863.796V70.56ZM863.796 49.68V48.68H862.796V49.68H863.796ZM896.436 49.68V50.68H897.436V49.68H896.436ZM896.436 10.56V9.56H895.436V10.56H896.436ZM921.156 10.56H922.156V9.56H921.156V10.56ZM921.156 49.68H920.156V50.68H921.156V49.68ZM948.996 49.68H949.996V48.68H948.996V49.68ZM948.996 70.56V71.56H949.996V70.56H948.996ZM921.156 70.56V69.56H920.156V70.56H921.156ZM952.596 147.12H953.596V146.12H952.596V147.12ZM952.596 168V169H953.596V168H952.596ZM980.436 161.52L979.729 162.227L979.729 162.227L980.436 161.52ZM973.956 70.56H974.956V69.56H973.956V70.56ZM948.996 70.56H947.996V71.56H948.996V70.56ZM948.996 49.68V48.68H947.996V49.68H948.996ZM973.956 49.68V50.68H974.956V49.68H973.956ZM973.956 10.56V9.56H972.956V10.56H973.956ZM998.676 10.56H999.676V9.56H998.676V10.56ZM998.676 49.68H997.676V50.68H998.676V49.68ZM1034.2 49.68H1035.2V48.68H1034.2V49.68ZM1034.2 70.56V71.56H1035.2V70.56H1034.2ZM998.676 70.56V69.56H997.676V70.56H998.676ZM1030.12 147.12H1031.12V146.12H1030.12V147.12ZM1030.12 168V169H1031.12V168H1030.12ZM919.956 167C912.97 167 907.482 164.912 903.383 160.813L901.969 162.227C906.509 166.768 912.541 169 919.956 169V167ZM903.396 160.826C899.45 156.729 897.436 151.237 897.436 144.24H895.436C895.436 151.643 897.581 157.671 901.955 162.214L903.396 160.826ZM897.436 144.24V70.56H895.436V144.24H897.436ZM896.436 69.56H863.796V71.56H896.436V69.56ZM864.796 70.56V49.68H862.796V70.56H864.796ZM863.796 50.68H896.436V48.68H863.796V50.68ZM897.436 49.68V10.56H895.436V49.68H897.436ZM896.436 11.56H921.156V9.56H896.436V11.56ZM920.156 10.56V49.68H922.156V10.56H920.156ZM921.156 50.68H948.996V48.68H921.156V50.68ZM947.996 49.68V70.56H949.996V49.68H947.996ZM948.996 69.56H921.156V71.56H948.996V69.56ZM920.156 70.56V139.92H922.156V70.56H920.156ZM920.156 139.92C920.156 142.458 920.746 144.547 922.105 146.002C923.475 147.471 925.463 148.12 927.876 148.12V146.12C925.808 146.12 924.436 145.569 923.567 144.638C922.685 143.693 922.156 142.182 922.156 139.92H920.156ZM927.876 148.12H952.596V146.12H927.876V148.12ZM951.596 147.12V168H953.596V147.12H951.596ZM952.596 167H919.956V169H952.596V167ZM997.716 167C990.73 167 985.242 164.912 981.143 160.813L979.729 162.227C984.269 166.768 990.301 169 997.716 169V167ZM981.143 160.813C977.043 156.714 974.956 151.226 974.956 144.24H972.956C972.956 151.654 975.188 157.686 979.729 162.227L981.143 160.813ZM974.956 144.24V70.56H972.956V144.24H974.956ZM973.956 69.56H948.996V71.56H973.956V69.56ZM949.996 70.56V49.68H947.996V70.56H949.996ZM948.996 50.68H973.956V48.68H948.996V50.68ZM974.956 49.68V10.56H972.956V49.68H974.956ZM973.956 11.56H998.676V9.56H973.956V11.56ZM997.676 10.56V49.68H999.676V10.56H997.676ZM998.676 50.68H1034.2V48.68H998.676V50.68ZM1033.2 49.68V70.56H1035.2V49.68H1033.2ZM1034.2 69.56H998.676V71.56H1034.2V69.56ZM997.676 70.56V139.92H999.676V70.56H997.676ZM997.676 139.92C997.676 142.466 998.29 144.56 999.697 146.015C1001.11 147.476 1003.15 148.12 1005.64 148.12V146.12C1003.48 146.12 1002.04 145.564 1001.13 144.625C1000.22 143.68 999.676 142.174 999.676 139.92H997.676ZM1005.64 148.12H1030.12V146.12H1005.64V148.12ZM1029.12 147.12V168H1031.12V147.12H1029.12ZM1030.12 167H997.716V169H1030.12V167ZM1071.69 163.92L1071.19 164.788L1071.21 164.795L1071.69 163.92ZM1050.57 142.56L1049.69 143.031L1049.69 143.041L1049.7 143.05L1050.57 142.56ZM1050.57 75.36L1051.45 75.8378L1051.45 75.8314L1050.57 75.36ZM1071.21 54L1071.7 54.8712L1071.71 54.8682L1071.21 54ZM1131.93 54L1131.41 54.8561L1131.42 54.8618L1131.43 54.8672L1131.93 54ZM1152.09 74.88L1152.97 74.4078L1152.97 74.4078L1152.09 74.88ZM1159.29 115.68V116.68H1160.29V115.68H1159.29ZM1068.33 115.68V114.68H1067.3L1067.33 115.711L1068.33 115.68ZM1078.65 140.64L1077.96 141.365L1077.97 141.373L1077.98 141.382L1078.65 140.64ZM1124.49 143.52L1123.84 142.764L1123.83 142.77L1123.82 142.775L1124.49 143.52ZM1135.53 129.12L1135.99 128.232L1135.07 127.754L1134.63 128.694L1135.53 129.12ZM1155.93 139.68L1156.82 140.127L1157.27 139.245L1156.39 138.792L1155.93 139.68ZM1146.09 153.84L1145.34 153.183L1145.33 153.19L1145.32 153.197L1146.09 153.84ZM1129.53 166.32L1129.97 167.219L1129.97 167.219L1129.53 166.32ZM1068.57 96.72L1067.58 96.5786L1067.42 97.72H1068.57V96.72ZM1134.09 96.72V97.72H1135.16L1135.09 96.6487L1134.09 96.72ZM1124.49 75.84L1123.83 76.5874L1123.83 76.5926L1123.84 76.5978L1124.49 75.84ZM1079.13 75.84L1079.78 76.5978L1079.78 76.5964L1079.13 75.84ZM1103.13 170.36C1091.27 170.36 1080.96 167.91 1072.17 163.045L1071.21 164.795C1080.34 169.85 1090.99 172.36 1103.13 172.36V170.36ZM1072.19 163.052C1063.39 158.023 1056.47 151.035 1051.44 142.07L1049.7 143.05C1054.91 152.325 1062.07 159.577 1071.19 164.788L1072.19 163.052ZM1051.45 142.089C1046.58 132.975 1044.13 122.421 1044.13 110.4H1042.13C1042.13 122.699 1044.64 133.585 1049.69 143.031L1051.45 142.089ZM1044.13 110.4V107.52H1042.13V110.4H1044.13ZM1044.13 107.52C1044.13 95.3358 1046.58 84.786 1051.45 75.8378L1049.69 74.8822C1044.64 84.174 1042.13 95.0642 1042.13 107.52H1044.13ZM1051.45 75.8314C1056.33 66.7117 1063.07 59.7338 1071.7 54.8711L1070.72 53.1288C1061.75 58.1862 1054.73 65.4482 1049.69 74.8886L1051.45 75.8314ZM1071.71 54.8682C1080.5 49.8455 1090.64 47.32 1102.17 47.32V45.32C1090.34 45.32 1079.84 47.9145 1070.71 53.1318L1071.71 54.8682ZM1102.17 47.32C1113.38 47.32 1123.11 49.8434 1131.41 54.8561L1132.45 53.1439C1123.79 47.9166 1113.68 45.32 1102.17 45.32V47.32ZM1131.43 54.8672C1139.91 59.7321 1146.5 66.5537 1151.21 75.3522L1152.97 74.4078C1148.09 65.2863 1141.23 58.1879 1132.43 53.1327L1131.43 54.8672ZM1151.21 75.3522C1155.92 84.1428 1158.29 94.455 1158.29 106.32H1160.29C1160.29 94.185 1157.86 83.5371 1152.97 74.4078L1151.21 75.3522ZM1158.29 106.32V115.68H1160.29V106.32H1158.29ZM1159.29 114.68H1068.33V116.68H1159.29V114.68ZM1067.33 115.711C1067.66 126.331 1071.18 134.916 1077.96 141.365L1079.34 139.915C1073 133.884 1069.64 125.829 1069.33 115.649L1067.33 115.711ZM1077.98 141.382C1084.9 147.644 1093.47 150.76 1103.61 150.76V148.76C1093.91 148.76 1085.84 145.796 1079.32 139.898L1077.98 141.382ZM1103.61 150.76C1113.02 150.76 1120.26 148.653 1125.16 144.265L1123.82 142.775C1119.44 146.707 1112.76 148.76 1103.61 148.76V150.76ZM1125.14 144.276C1130.04 140.03 1133.81 135.119 1136.43 129.546L1134.63 128.694C1132.13 134.001 1128.54 138.69 1123.84 142.764L1125.14 144.276ZM1135.07 130.008L1155.47 140.568L1156.39 138.792L1135.99 128.232L1135.07 130.008ZM1155.04 139.233C1152.84 143.618 1149.62 148.268 1145.34 153.183L1146.84 154.497C1151.2 149.492 1154.54 144.702 1156.82 140.127L1155.04 139.233ZM1145.32 153.197C1141.27 158.032 1135.87 162.112 1129.09 165.421L1129.97 167.219C1136.95 163.808 1142.59 159.568 1146.86 154.483L1145.32 153.197ZM1129.09 165.421C1122.39 168.693 1113.76 170.36 1103.13 170.36V172.36C1113.95 172.36 1122.91 170.667 1129.97 167.219L1129.09 165.421ZM1068.57 97.72H1134.09V95.72H1068.57V97.72ZM1135.09 96.6487C1134.43 87.4751 1131.14 80.2473 1125.14 75.0822L1123.84 76.5978C1129.36 81.3527 1132.47 88.0449 1133.09 96.7912L1135.09 96.6487ZM1125.15 75.0926C1119.18 69.7781 1111.4 67.16 1101.93 67.16V69.16C1111.02 69.16 1118.28 71.6619 1123.83 76.5874L1125.15 75.0926ZM1101.93 67.16C1092.46 67.16 1084.61 69.7783 1078.48 75.0836L1079.78 76.5964C1085.49 71.6617 1092.84 69.16 1101.93 69.16V67.16ZM1078.48 75.0822C1072.5 80.2291 1068.89 87.4271 1067.58 96.5786L1069.56 96.8614C1070.81 88.0929 1074.24 81.3709 1079.78 76.5978L1078.48 75.0822Z" fill="white" mask="url(#path-1-outside-1_570_2)"/>
</svg>
